<svg xmlns="http://www.w3.org/2000/svg" viewBox="0 0 1185.8699951171875 328.9599914550781" xml:space="preserve" preserveAspectRatio="none" style="overflow: visible; width: 900px; height: 250px; fill: rgb(35, 24, 21);">\n' + '                    \n' + '            <g style="stroke: none;  stroke-width: 0;stroke-dasharray: 0,0;stroke-linecap: butt;stroke-linejoin: miter;stroke-miterlimit: 10;" transform="translate(0 0) ">\n' + '                <g style=" ">\n' + '                    \n' + '                    \n' + '                <defs>\n' + '                    <clipPath id="clipPath_31" style="transform:">\n' + '                        <path d="M0 0h1185.8699951171875v328.9599914550781h-1185.8699951171875z" style="fill: rgb(35, 24, 21);"></path>\n' + '                    </clipPath>\n' + '                </defs>\n' + '                    <g clip-path="url(#clipPath_31)">\n' + '                        <g transform="translate(0 0) scale(1 1)">\n' + '                            <path xmlns="http://www.w3.org/2000/svg" d="M1185.82,213.72c-.62-3.75-8.16-5.23-12-2.35a214.3,214.3,0,0,1-35.38,21.12q-36.32,17.36-82.7,17.36a228.77,228.77,0,0,1-51-5.3,299.84,299.84,0,0,1-44.82-14,225.4,225.4,0,0,0,46.37-24.6,193.67,193.67,0,0,0,36.32-31.84,154.05,154.05,0,0,0,23.18-34.73q8.5-17.85,8.5-34.24,0-34.73-24-62.22T966,15.43q-27.82,0-47.91,9.16T886.44,49.2a103.49,103.49,0,0,0-17,35.21,154.72,154.72,0,0,0-5.41,41q0,29.9,17.78,57.4t53.32,46.79a211.53,211.53,0,0,1-63.37,9.65q-30.91,0-54.1-5.79a110.08,110.08,0,0,0,7.73-18.33,66,66,0,0,0,3.09-20.26q0-21.22-14.68-32.8t-36.32-11.58q-20.1,0-30.91,9.16t-10.82,24.6q0,19.29,19.32,33.28t48.69,21.7q-17,23.15-47.14,38.59a317.38,317.38,0,0,1-65.69,24.6,500.94,500.94,0,0,1-71.1,13A583.07,583.07,0,0,1,558,319.31q-71.1,0-122.11-16.88T354,258.54Q423.52,245,466.79,215.12a211.38,211.38,0,0,0,44.05,10.61,343.87,343.87,0,0,0,44.05,2.89q40.18,0,70.33-10.61t49.46-27q19.32-16.4,29.37-35.69t10-37.62q0-32.8-18.55-55T646.86,26.53A263.76,263.76,0,0,0,580.4,6.27,413.27,413.27,0,0,0,510.07,0Q456,0,415,13T345.46,48.23q-28.59,22.19-43.28,50.65a127.75,127.75,0,0,0-14.68,59.33,120.22,120.22,0,0,0,10.82,50.65,154.3,154.3,0,0,0,29.37,42.93q-26.28,3.86-63.37,3.86a578.67,578.67,0,0,1-96.61-7.72q-45.6-7.72-79.6-22.67T34,189.08q-20.1-21.22-20.09-48.23,0-40.52,37.87-64.15t85.79-23.63q57.19,0,87.33,15.92T255,112.87q0,22.19-23.19,35.69T187,162.07q-20.09,0-29.37-2.89a10.58,10.58,0,0,0-7,.48q-3.86,1.45.77,4.34a91.78,91.78,0,0,0,32.46,5.79q40.19,0,61.83-18.81t21.64-38.11q0-20.26-11.59-33.28T225.67,58.36a148.15,148.15,0,0,0-41.73-11.09A374.3,374.3,0,0,0,140,44.38a191.33,191.33,0,0,0-53.47,7,179.8,179.8,0,0,0-43.3,18.6Q23.19,82,11.59,99.85A71.91,71.91,0,0,0,0,139.88q0,26,15.46,49.2T63.37,229.6Q95.83,247,146.07,257.09t118.24,10.13A451.46,451.46,0,0,0,337,261.43q37.1,30.87,93.51,49.2T558,329A536.75,536.75,0,0,0,636,323.17a505.85,505.85,0,0,0,74.19-16.4,288.75,288.75,0,0,0,62.6-27q27.82-16.4,41.73-38.59L842.39,245A214,214,0,0,0,871.76,247a216.9,216.9,0,0,0,72.65-12.54q44.82,22.19,111.29,22.19,46.37,0,84.24-15.44a218.37,218.37,0,0,0,44.26-24.07,3.36,3.36,0,0,0,1.64-3.26Zm-722.11-9.2a95.43,95.43,0,0,1-27.82-23.15q-10.82-13.51-10.82-32.8t10.82-27.49a39.85,39.85,0,0,1,24.73-8.2q17,0,26.28,9.16t9.27,23.63Q496.16,180.4,463.7,204.51ZM303,158.21q0-33.76,17-61.26t45.6-47.27Q394.14,29.9,432,18.81a281.69,281.69,0,0,1,79.6-11.09,314.37,314.37,0,0,1,65.69,6.75Q609,21.22,633.72,34.25T673.14,68q14.68,20.74,14.68,47.75,0,16.4-7,34.73t-22.41,34.73q-15.46,16.4-41,27t-62.6,10.61a241.88,241.88,0,0,1-80.38-13.51q37.1-27,37.1-64.63,0-23.15-15.45-32.32t-35.55-9.16q-30.92,0-40.19,15.92t-9.28,29.42q0,22.19,13.14,37.14t33.23,24.6q-20.1,13.51-48.69,23.63a376.8,376.8,0,0,1-62.6,15.92Q303,206.44,303,158.21Zm503.89,73.32q-26.28-6.75-42.51-18.81T748.1,184.26q0-11.58,9.28-17.85a35.16,35.16,0,0,1,20.09-6.27q17,0,28.59,10.61t11.59,24.12a57.15,57.15,0,0,1-3.09,19.29A128,128,0,0,1,806.84,231.53ZM897.26,178q-17.78-27.49-17.78-52.58Q879.49,81,901.13,54T966,27q24.73,0,40.19,7.24t24,18.81A58.92,58.92,0,0,1,1041,78.62a168,168,0,0,1,2.32,27.49q0,30.87-23.18,65.6T949,224.77Q915,205.48,897.26,178Z" fill="#231815" fill-rule="evenodd" style="fill: rgb(35, 24, 21); fill-opacity: 1; fill-rule: nonzero;"></path>\n' + '                        </g>\n' + '                    </g>\n' + '                </g>\n' + '            </g>\n' + '                </svg>